<?xml version="1.0" encoding="utf-8"?>
<!-- Generator: Adobe Illustrator 17.0.0, SVG Export Plug-In . SVG Version: 6.00 Build 0)  -->
<!DOCTYPE svg PUBLIC "-//W3C//DTD SVG 1.1//EN" "http://www.w3.org/Graphics/SVG/1.1/DTD/svg11.dtd">
<svg version="1.1" id="Layer_1" xmlns="http://www.w3.org/2000/svg" xmlns:xlink="http://www.w3.org/1999/xlink" x="0px" y="0px"
	 width="266px" height="266px" viewBox="-25 -43 266 266" enable-background="new -25 -43 266 266" xml:space="preserve">
<g>
	<path fill="#FFFFFF" d="M108,221.953c-35.247,0-68.398-13.735-93.355-38.646S-24,125.247-24,90s13.735-68.398,38.646-93.308
		S72.753-41.953,108-41.953s68.398,13.735,93.354,38.646S240,54.753,240,90.047s-13.735,68.398-38.646,93.308
		C176.444,208.265,143.247,221.953,108,221.953z M108-35.807C38.624-35.807-17.807,20.624-17.807,90S38.624,215.807,108,215.807
		S233.807,159.376,233.807,90S177.376-35.807,108-35.807L108-35.807z"/>
	<path fill="#FFFFFF" d="M42.023,41.158c-0.14,0-0.233-0.047-0.326-0.14L25.82,26.724c-0.093-0.093-0.14-0.233-0.14-0.372
		s0.047-0.279,0.14-0.372l10.895-12.106c0.093-0.093,0.233-0.14,0.372-0.14c0.14,0,0.279,0.047,0.372,0.14l3.166,2.84
		c0.186,0.186,0.233,0.512,0.047,0.745l-7.45,8.195l2.607,2.375l6.472-7.17c0.186-0.186,0.512-0.233,0.698-0.047c0,0,0,0,0.047,0
		l3.166,2.84c0.093,0.093,0.14,0.233,0.186,0.372c0,0.14-0.047,0.279-0.14,0.372l-6.472,7.17l5.774,5.168
		c0.233,0.186,0.233,0.512,0.047,0.745l0,0l-3.166,3.492C42.303,41.111,42.163,41.158,42.023,41.158z"/>
	<path fill="#FFFFFF" d="M58.646,23.977c-0.093,0-0.186,0-0.233-0.047c-0.14-0.093-0.233-0.233-0.279-0.419l-2.328-23.28
		c0-0.186,0.093-0.419,0.279-0.512l3.818-2.095c0.186-0.093,0.419-0.093,0.559,0.047l18.392,14.434
		c0.14,0.093,0.233,0.279,0.186,0.466c0,0.186-0.14,0.326-0.279,0.419l-4.33,2.375c-0.186,0.093-0.419,0.093-0.559-0.047
		l-3.771-3.026l-7.31,4.004l0.559,4.796c0.047,0.233-0.093,0.419-0.279,0.512l-4.19,2.281
		C58.832,23.977,58.739,23.977,58.646,23.977z M61.579,5.352l0.605,5.401l3.632-2.002L61.579,5.352z"/>
	<path fill="#FFFFFF" d="M87.094,10.707c-0.093,0-0.233-0.047-0.326-0.093c-0.093-0.093-0.186-0.186-0.233-0.326l-3.213-21.139
		c-0.047-0.279,0.14-0.559,0.419-0.605l9.824-1.49c0.605-0.093,1.211-0.14,1.816-0.14c3.632,0,6.099,1.862,6.565,4.982v0.047
		c0.279,1.909-0.186,3.492-1.537,4.796c2.514,0.792,3.818,2.281,4.19,4.749v0.047c0.326,2.002-0.279,3.771-1.676,5.122
		c-1.304,1.257-3.259,2.095-5.82,2.468L87.094,10.707L87.094,10.707z M90.866,1.208l0.559,3.632l5.029-0.745
		c2.794-0.419,2.561-1.769,2.514-2.235V1.814c-0.093-0.605-0.419-1.397-2.142-1.397c-0.372,0-0.698,0.047-1.071,0.093L90.866,1.208z
		 M89.562-7.126l0.512,3.446l3.771-0.559c0.978-0.14,1.676-0.419,2.095-0.792c0.419-0.326,0.605-0.838,0.466-1.35v-0.047
		c-0.14-0.885-0.792-1.35-1.956-1.35c-0.279,0-0.559,0.047-0.838,0.047L89.562-7.126z"/>
	<path fill="#FFFFFF" d="M129.93,10.986c-0.047,0-0.047,0-0.093,0l-15.132-2.514c-0.14-0.047-0.279-0.093-0.326-0.233
		c-0.093-0.093-0.093-0.233-0.093-0.372l3.492-21.092c0.047-0.279,0.326-0.466,0.605-0.419l4.656,0.792
		c0.14,0.047,0.233,0.093,0.326,0.186c0.093,0.093,0.093,0.233,0.093,0.372l-2.701,16.343l9.964,1.676
		c0.279,0.047,0.466,0.326,0.419,0.605l-0.698,4.237c-0.047,0.14-0.093,0.233-0.233,0.326
		C130.116,10.94,130.023,10.986,129.93,10.986z"/>
	<path fill="#FFFFFF" d="M157.029,23.744c-0.093,0-0.186,0-0.279-0.047l-4.33-2.328c-0.186-0.093-0.279-0.279-0.279-0.512
		l0.512-4.796l-7.31-3.958l-3.725,3.073c-0.186,0.14-0.372,0.14-0.559,0.047l-4.237-2.281c-0.14-0.093-0.233-0.233-0.279-0.419
		c0-0.186,0.047-0.326,0.186-0.466L155.12-2.516c0.14-0.14,0.372-0.14,0.559-0.047l3.818,2.095c0.186,0.093,0.279,0.279,0.279,0.512
		l-2.235,23.28c0,0.186-0.093,0.326-0.279,0.419C157.215,23.744,157.122,23.744,157.029,23.744z M149.719,8.519l3.632,1.956
		l0.605-5.448L149.719,8.519z"/>
	<path fill="#FFFFFF" d="M176.631,40.785c-2.142,0-4.423-1.257-6.565-3.678l-6.751-7.589c-0.093-0.093-0.14-0.233-0.14-0.372
		c0-0.14,0.047-0.279,0.186-0.326l15.97-14.201c0.233-0.186,0.559-0.186,0.745,0.047l6.612,7.403
		c1.49,1.676,2.328,3.445,2.421,5.168c0.093,1.723-0.605,3.399-1.909,4.516h-0.047c-1.443,1.257-3.026,1.723-4.842,1.35
		c0.698,2.514,0.14,4.423-1.723,6.099l-0.047,0.047C179.424,40.226,178.074,40.785,176.631,40.785z M170.531,29.89l3.352,3.771
		c0.792,0.885,1.536,1.35,2.188,1.35l0,0c0.372,0,0.745-0.186,1.024-0.419l0.047-0.047c0.326-0.279,1.35-1.211-0.605-3.399
		l-3.259-3.678L170.531,29.89z M176.957,24.163l2.561,2.84c0.838,0.931,1.583,1.397,2.235,1.397c0.372,0,0.745-0.14,0.978-0.419
		l0.047-0.047c1.071-0.931,0.326-2.142-0.466-3.026l-2.747-3.073L176.957,24.163z"/>
	<path fill="#FFFFFF" d="M33.829,159.003c-2.701,0-5.261-1.397-7.403-4.097c-3.865-4.842-3.213-9.917,1.769-13.875l9.545-7.589
		c0.093-0.093,0.233-0.14,0.372-0.093c0.14,0,0.233,0.093,0.326,0.186l2.933,3.678c0.093,0.093,0.14,0.233,0.093,0.372
		c0,0.14-0.093,0.233-0.186,0.326l-9.452,7.496c-2.421,1.956-2.84,4.051-1.164,6.146c1.676,2.095,3.818,2.188,6.146,0.326
		l9.592-7.589c0.233-0.186,0.559-0.14,0.698,0.093l0,0l2.887,3.678c0.186,0.186,0.14,0.512-0.047,0.698l0,0l-9.405,7.496
		C38.298,158.072,36.017,159.003,33.829,159.003z"/>
	<path fill="#FFFFFF" d="M50.171,176.231c-0.093,0-0.186-0.047-0.279-0.093l-3.958-2.514c-0.093-0.093-0.186-0.186-0.233-0.326
		c-0.047-0.14,0-0.279,0.047-0.372l11.407-18.066c0.14-0.233,0.466-0.326,0.698-0.186l7.403,4.656c4.47,2.84,5.68,7.263,3.12,11.314
		l-0.047,0.047c-1.537,2.421-3.725,3.678-6.379,3.678c-1.816,0-3.771-0.652-5.634-1.816l-2.561-1.63l-3.166,4.982
		C50.497,176.184,50.358,176.277,50.171,176.231z M56.55,166.639l2.701,1.723c0.605,0.419,1.257,0.605,2.002,0.652
		c0.885,0,1.723-0.466,2.142-1.211l0.047-0.047c1.257-2.002-0.279-3.399-1.35-4.051l-2.654-1.676L56.55,166.639z"/>
	<path fill="#FFFFFF" d="M97.198,193.598c-0.698,0-1.397-0.047-2.095-0.14c-3.073-0.372-5.82-1.956-7.683-4.423
		c-1.816-2.468-2.561-5.494-2.142-8.521v-0.047c0.838-5.867,5.494-10.011,11.361-10.011c0.605,0,1.164,0.047,1.769,0.14
		c3.632,0.512,6.146,1.909,8.241,4.61c0.186,0.233,0.14,0.512-0.047,0.698l-3.445,2.98c-0.093,0.093-0.233,0.14-0.372,0.14
		c-0.14,0-0.279-0.093-0.372-0.186c-1.49-1.816-2.98-2.701-4.749-2.933c-0.279-0.047-0.512-0.047-0.792-0.047
		c-2.84,0-5.261,2.235-5.68,5.354v0.047c-0.233,1.583,0.093,3.213,0.978,4.563c0.885,1.304,2.235,2.142,3.818,2.375
		c0.326,0.047,0.698,0.093,1.024,0.093c1.676,0,2.98-0.652,4.516-1.723c0.233-0.14,0.512-0.093,0.698,0.093l2.561,3.399
		c0.14,0.233,0.14,0.512-0.093,0.698C102.273,192.76,100.038,193.598,97.198,193.598z"/>
	<path fill="#FFFFFF" d="M120.478,193.412c-0.093,0-0.186-0.047-0.279-0.093c-0.093-0.093-0.186-0.186-0.233-0.326l-4.144-20.952
		c-0.047-0.279,0.14-0.559,0.419-0.605l15.831-3.12c0.14-0.047,0.279,0,0.372,0.093s0.186,0.186,0.233,0.326l0.792,4.097
		c0.047,0.279-0.14,0.559-0.372,0.605l0,0l-10.709,2.095l0.652,3.259l9.405-1.862c0.279-0.047,0.559,0.14,0.605,0.419l0.792,4.097
		c0.047,0.14,0,0.279-0.093,0.372c-0.093,0.14-0.186,0.186-0.326,0.233l-9.359,1.862l0.652,3.399l10.849-2.142
		c0.279-0.047,0.559,0.14,0.605,0.419l0,0l0.792,4.097c0.047,0.14,0,0.279-0.093,0.372s-0.186,0.186-0.326,0.233l-15.97,3.166
		L120.478,193.412z"/>
	<path fill="#FFFFFF" d="M152.233,184.286c-0.186,0-0.372-0.093-0.466-0.279l-10.662-18.531c-0.14-0.233-0.047-0.559,0.186-0.698
		l0,0l8.567-4.935c1.63-0.931,3.166-1.397,4.656-1.397c2.049-0.047,3.958,1.071,4.935,2.84l0.047,0.047
		c0.931,1.676,1.071,3.306,0.326,5.029c2.607-0.186,4.377,0.745,5.634,2.933l0.047,0.047c2.002,3.492,0.512,7.077-4.19,9.778
		l-8.8,5.075C152.419,184.286,152.326,184.286,152.233,184.286z M152.512,174.042l1.816,3.166l4.377-2.514
		c0.838-0.466,1.397-0.978,1.63-1.49c0.233-0.466,0.186-1.024-0.093-1.49l-0.047-0.047c-0.605-1.071-1.769-1.071-3.492-0.093
		L152.512,174.042z M148.275,166.732l1.723,3.026l3.306-1.909c2.468-1.443,1.862-2.561,1.63-2.933l-0.047-0.047
		c-0.559-0.978-1.63-0.978-3.073-0.186L148.275,166.732z"/>
	<path fill="#FFFFFF" d="M180.076,161.517c-2.235,0-4.516-0.978-6.751-2.887l-9.312-7.915c-0.233-0.186-0.233-0.512-0.047-0.745
		l3.026-3.585c0.093-0.093,0.233-0.14,0.372-0.186c0.14,0,0.279,0.047,0.372,0.14l9.219,7.822c2.328,2.002,4.563,2.002,6.286,0
		c0.838-0.978,1.211-2.002,1.071-3.026c-0.14-1.024-0.792-2.095-1.956-3.073l-9.312-7.962c-0.233-0.186-0.233-0.512-0.047-0.745
		l3.073-3.585c0.186-0.233,0.512-0.233,0.745-0.047l9.172,7.822c4.889,4.19,5.401,9.312,1.304,14.108
		C185.151,160.167,182.637,161.517,180.076,161.517z"/>
	<path fill="#FFFFFF" d="M132.491,88.277c1.117-0.652,2.375-0.978,3.678-0.978c1.583,0,3.12,0.512,4.377,1.397
		c0.838,0.605,1.909,0.652,2.794,0.14l12.385-7.124c0.792-0.466,1.304-1.304,1.35-2.235V63.134c0-0.931-0.512-1.769-1.35-2.235
		c-0.931-0.559-46.468-26.772-46.468-26.772c-0.792-0.466-1.769-0.466-2.561,0l-14.154,8.195c-1.211,0.698-1.676,2.281-0.931,3.492
		c0.233,0.372,0.559,0.698,0.931,0.931l10.709,6.193c0.466,0.279,1.024,0.372,1.583,0.326c5.82-0.698,11.687,0.512,16.762,3.399
		l0.093,0.047c3.539,2.049,4.749,6.565,2.701,10.15c-0.652,1.117-1.583,2.095-2.747,2.747l-0.047,0.047
		c-8.474,4.842-18.857,4.796-27.285-0.047c-2.514-1.49-3.958-4.284-3.632-7.17c0.093-1.024-0.372-2.002-1.257-2.514l-12.339-7.124
		c-0.792-0.466-1.769-0.466-2.561,0l-14.154,8.148c-0.792,0.466-1.304,1.304-1.35,2.235v53.592c0,0.931,0.512,1.769,1.35,2.235
		l14.154,8.148c1.211,0.698,2.794,0.279,3.539-0.931c0.233-0.372,0.326-0.838,0.326-1.304v-12.339c0-0.559-0.186-1.117-0.512-1.536
		c-3.492-4.703-5.401-10.383-5.401-16.25v-0.093c0-4.097,3.352-7.403,7.45-7.403c1.304,0,2.561,0.326,3.678,0.978l0,0
		c8.428,4.935,13.642,13.968,13.642,23.746c0,2.933-1.723,5.587-4.423,6.751c-0.931,0.419-1.537,1.35-1.537,2.375v14.248
		c0,0.931,0.512,1.769,1.304,2.235l14.154,8.148c0.372,0.233,0.838,0.326,1.304,0.326s0.931-0.093,1.304-0.326l46.421-26.772
		c0.792-0.466,1.304-1.304,1.35-2.235V100.43c0-0.931-0.512-1.769-1.35-2.235s-1.816-0.466-2.654,0l-10.709,6.146
		c-0.466,0.279-0.838,0.698-1.071,1.211c-2.281,5.354-6.286,9.824-11.314,12.758c-0.047,0.047-0.093,0.047-0.14,0.093
		c-3.539,2.049-8.102,0.838-10.15-2.747c-0.652-1.117-0.978-2.375-0.978-3.678v-0.093
		C118.849,102.152,124.063,93.166,132.491,88.277z M105.439,139.075l-9.033-5.168v-11.221c3.678-2.281,5.913-6.332,5.96-10.662
		c0-11.64-6.193-22.349-16.25-28.216l0,0c-6.053-3.445-13.735-1.35-17.181,4.656c-1.071,1.862-1.63,3.958-1.676,6.099
		c0,0,0,0.047,0,0.093c0,6.705,2.049,13.223,5.913,18.671v7.031l-9.033-5.215V67.651l41.346,23.793L105.439,139.075z M108,87.02
		L66.747,63.181l8.986-5.168l9.731,5.587c0.14,4.33,2.514,8.288,6.286,10.476c10.057,5.82,22.489,5.82,32.546,0l0.093-0.047
		c5.96-3.539,7.962-11.268,4.423-17.228c-1.071-1.816-2.607-3.352-4.423-4.423c-0.047,0-0.047-0.047-0.093-0.047
		c-5.774-3.352-12.478-4.796-19.137-4.237l-6.099-3.539l8.986-5.168l41.253,23.793L108,87.02z M115.357,118.309
		c3.446,5.96,11.035,8.055,17.041,4.703c0.047-0.047,0.093-0.047,0.14-0.093c5.82-3.352,10.43-8.381,13.27-14.48l6.146-3.539v10.383
		l-41.299,23.839V91.443L152,67.651v10.383l-9.824,5.587c-1.862-0.978-3.911-1.49-5.96-1.49c-2.188,0-4.33,0.559-6.239,1.676
		c-10.057,5.82-16.25,16.576-16.296,28.169v0.14C113.68,114.305,114.239,116.447,115.357,118.309L115.357,118.309z"/>
</g>
</svg>
